<svg xmlns="http://www.w3.org/2000/svg" viewBox="0 0 1200 340" width="1200" height="340" preserveAspectRatio="xMinYMid slice" role="img" aria-label="Line illustration of a robotic arm reaching toward a satellite in orbit above the Earth">
  <defs>
    <pattern id="grid" width="40" height="40" patternUnits="userSpaceOnUse">
      <path d="M40 0H0V40" fill="none" stroke="#14213a" stroke-width="1"/>
    </pattern>
    <clipPath id="planet-clip"><circle cx="860" cy="640" r="420"/></clipPath>
  </defs>

  <rect width="1200" height="340" fill="#0d1626"/>
  <rect width="1200" height="340" fill="url(#grid)"/>

  <g fill="#cfe0ff">
    <circle cx="40" cy="30" r="1.2" opacity=".7"/><circle cx="95" cy="80" r=".9" opacity=".5"/>
    <circle cx="150" cy="40" r="1.5" opacity=".8"/><circle cx="210" cy="95" r=".8" opacity=".4"/>
    <circle cx="260" cy="28" r="1.1" opacity=".6"/><circle cx="320" cy="70" r=".9" opacity=".5"/>
    <circle cx="380" cy="25" r="1.6" opacity=".8"/><circle cx="430" cy="110" r=".8" opacity=".4"/>
    <circle cx="470" cy="40" r="1.1" opacity=".6"/><circle cx="610" cy="30" r="1.3" opacity=".7"/>
    <circle cx="650" cy="95" r=".9" opacity=".5"/><circle cx="700" cy="50" r="1.6" opacity=".8"/>
    <circle cx="745" cy="120" r=".8" opacity=".4"/><circle cx="790" cy="30" r="1.2" opacity=".6"/>
    <circle cx="840" cy="75" r=".9" opacity=".5"/><circle cx="900" cy="22" r="1.5" opacity=".8"/>
    <circle cx="950" cy="60" r=".8" opacity=".4"/><circle cx="1010" cy="100" r="1.2" opacity=".6"/>
    <circle cx="1060" cy="35" r="1.6" opacity=".8"/><circle cx="1110" cy="80" r=".9" opacity=".5"/>
    <circle cx="1160" cy="28" r="1.2" opacity=".7"/><circle cx="60" cy="170" r=".8" opacity=".4"/>
    <circle cx="30" cy="260" r=".9" opacity=".4"/><circle cx="310" cy="200" r=".8" opacity=".4"/>
    <circle cx="420" cy="250" r="1.1" opacity=".5"/><circle cx="580" cy="160" r=".9" opacity=".4"/>
    <circle cx="640" cy="200" r="1.2" opacity=".5"/><circle cx="1150" cy="150" r="1" opacity=".5"/>
    <circle cx="560" cy="120" r=".8" opacity=".4"/><circle cx="980" cy="160" r=".9" opacity=".5"/>
  </g>

  <circle cx="860" cy="640" r="665" fill="none" stroke="#8cbcff" stroke-opacity=".35" stroke-width="1.5" stroke-dasharray="3 8"/>

  <circle cx="860" cy="640" r="436" fill="none" stroke="#5aa2ff" stroke-opacity=".12" stroke-width="12"/>
  <circle cx="860" cy="640" r="420" fill="#091221" stroke="#5aa2ff" stroke-opacity=".6" stroke-width="1.5"/>
  <g clip-path="url(#planet-clip)" fill="none" stroke="#1a2f55" stroke-width="1">
    <ellipse cx="860" cy="640" rx="420" ry="90"/>
    <ellipse cx="860" cy="640" rx="420" ry="200"/>
    <ellipse cx="860" cy="640" rx="420" ry="320"/>
    <ellipse cx="860" cy="640" rx="140" ry="420"/>
    <ellipse cx="860" cy="640" rx="290" ry="420"/>
  </g>

  <g stroke="#5aa2ff" stroke-width="1.5" stroke-linejoin="round">
    <rect x="110" y="316" width="160" height="14" rx="3" fill="#0d1626"/>
    <rect x="168" y="268" width="44" height="48" rx="4" fill="#111d33"/>
    <rect transform="translate(190 262) rotate(-38.7)" x="-11" y="-11" width="201" height="22" rx="11" fill="#111d33"/>
    <rect transform="translate(330 150) rotate(-25.3)" x="-9" y="-9" width="140" height="18" rx="9" fill="#111d33"/>
    <g transform="translate(440 98) rotate(-25.3)" fill="#111d33">
      <rect x="8" y="-14" width="10" height="28" rx="2"/>
      <rect x="18" y="-14" width="26" height="6" rx="2"/>
      <rect x="18" y="8" width="26" height="6" rx="2"/>
    </g>
  </g>
  <g fill="#0d1626" stroke="#8cbcff" stroke-width="1.5">
    <circle cx="190" cy="262" r="16"/>
    <circle cx="330" cy="150" r="14"/>
    <circle cx="440" cy="98" r="10"/>
  </g>
  <g fill="#5aa2ff">
    <circle cx="190" cy="262" r="4"/><circle cx="330" cy="150" r="3.5"/><circle cx="440" cy="98" r="3"/>
  </g>

  <g stroke="#8cbcff" stroke-width="1.5" stroke-linejoin="round">
    <line x1="500" y1="67" x2="478" y2="80" fill="none"/>
    <rect x="500" y="52" width="44" height="30" rx="3" fill="#111d33"/>
    <rect x="510" y="4" width="24" height="44" fill="#12233f"/>
    <rect x="510" y="86" width="24" height="44" fill="#12233f"/>
    <line x1="544" y1="67" x2="568" y2="67"/>
    <circle cx="571" cy="67" r="3" fill="#0d1626"/>
  </g>
  <g stroke="#25406b" stroke-width="1">
    <line x1="522" y1="4" x2="522" y2="48"/><line x1="510" y1="19" x2="534" y2="19"/><line x1="510" y1="33" x2="534" y2="33"/>
    <line x1="522" y1="86" x2="522" y2="130"/><line x1="510" y1="101" x2="534" y2="101"/><line x1="510" y1="115" x2="534" y2="115"/>
  </g>
  <circle cx="478" cy="80" r="22" fill="none" stroke="#5aa2ff" stroke-opacity=".5" stroke-width="1" stroke-dasharray="3 4"/>
</svg>
